<svg width="135" height="128" viewBox="0 0 135 128" fill="none" xmlns="http://www.w3.org/2000/svg">
<g clip-path="url(#clip0_133_181)">
<path d="M87.4951 147.113C75.5635 147.113 65.8235 137.467 65.8235 125.573L65.893 101.13C65.893 99.0896 67.5628 97.4647 69.5803 97.4647C71.6327 97.4647 73.2677 99.1242 73.2677 101.164L73.1981 125.608C73.1981 133.422 79.5987 139.784 87.4603 139.784C95.3219 139.784 101.722 133.422 101.722 125.608V73.3318C101.722 68.0074 106.071 63.6511 111.463 63.6511H138.178C146.04 63.6511 152.44 57.2894 152.44 49.4756C152.44 41.6619 146.04 35.3002 138.178 35.3002H39.6645C31.8029 35.3002 25.4023 41.6619 25.4023 49.4756C25.4023 55.1804 28.8113 60.3319 34.0988 62.5447C35.9772 63.3399 36.8468 65.4835 36.0816 67.3505C35.2815 69.2175 33.1248 70.0819 31.2463 69.3212C23.2108 65.933 18.0277 58.1538 18.0277 49.4756C17.9929 37.6167 27.6982 27.9705 39.6645 27.9705H138.213C150.144 27.9705 159.884 37.6167 159.884 49.5102C159.884 61.4037 150.179 71.0499 138.213 71.0499H111.497C110.21 71.0499 109.167 72.0872 109.167 73.3664V125.608C109.167 137.467 99.4614 147.148 87.4951 147.148V147.113Z" fill="white" fill-opacity="0.15"/>
<path d="M57.5792 81.3531L62.171 90.5153C64.2929 94.7333 70.5891 93.869 71.4588 89.236L76.955 59.7096C77.6855 55.7336 73.5807 52.6219 69.9282 54.3852L42.7604 67.5234C38.4818 69.5978 39.3166 75.8904 43.978 76.7893L54.1006 78.7254C55.6312 79.002 56.9183 80.0047 57.5792 81.3531Z" fill="white" fill-opacity="0.15"/>
</g>
<defs>
<clipPath id="clip0_133_181">
<rect width="141.857" height="119.143" fill="white" transform="translate(17.9929 27.9705)"/>
</clipPath>
</defs>
</svg>
