<svg width="50" height="50" viewBox="0 0 50 50" fill="none" xmlns="http://www.w3.org/2000/svg">
<g clip-path="url(#clip0_104_464)">
<path d="M24.98 42.46C21.55 42.46 18.75 39.67 18.75 36.23L18.77 29.16C18.77 28.57 19.25 28.1 19.83 28.1C20.42 28.1 20.89 28.58 20.89 29.17L20.87 36.24C20.87 38.5 22.71 40.34 24.97 40.34C27.23 40.34 29.07 38.5 29.07 36.24V21.12C29.07 19.58 30.32 18.32 31.87 18.32H39.55C41.81 18.32 43.65 16.48 43.65 14.22C43.65 11.96 41.81 10.12 39.55 10.12H11.23C8.97001 10.12 7.13001 11.96 7.13001 14.22C7.13001 15.87 8.11001 17.36 9.63001 18C10.17 18.23 10.42 18.85 10.2 19.39C9.97001 19.93 9.35001 20.18 8.81001 19.96C6.50001 18.98 5.01001 16.73 5.01001 14.22C5.00001 10.79 7.79001 8 11.23 8H39.56C42.99 8 45.79 10.79 45.79 14.23C45.79 17.67 43 20.46 39.56 20.46H31.88C31.51 20.46 31.21 20.76 31.21 21.13V36.24C31.21 39.67 28.42 42.47 24.98 42.47V42.46Z" fill="#3E3E3E"/>
<path d="M16.38 23.44L17.7 26.09C18.31 27.31 20.12 27.06 20.37 25.72L21.95 17.18C22.16 16.03 20.98 15.13 19.93 15.64L12.12 19.44C10.89 20.04 11.13 21.86 12.47 22.12L15.38 22.68C15.82 22.76 16.19 23.05 16.38 23.44Z" fill="#F6DE86"/>
</g>
<defs>
<clipPath id="clip0_104_464">
<rect width="40.78" height="34.46" fill="white" transform="translate(5 8)"/>
</clipPath>
</defs>
</svg>
